<svg xmlns="http://www.w3.org/2000/svg" width="479.478" height="307.606" viewBox="0 0 479.478 307.606">
  <g id="Grupo_9" data-name="Grupo 9" transform="translate(-493 -284)">
    <g id="Grupo_11" data-name="Grupo 11" transform="translate(493 284)">
      <path id="Trazado_31" data-name="Trazado 31" d="M160.19,587.715q.836-4.445,4.988-4.7a12.715,12.715,0,0,1,7.319,1.58q3.169,1.842,3.305,4.026a7.068,7.068,0,0,1-.523,3.526,88.042,88.042,0,0,1,14.962-2.065,61.983,61.983,0,0,1,16.456,1.1q27.382,5.616,29.15,34.129.678,25.975-17.722,45.74a100.658,100.658,0,0,1-44.381,27.87,16.917,16.917,0,0,1-3.128.357,10.349,10.349,0,0,1-5.552-1.448,8.725,8.725,0,0,1-4.041-3.976q-2.552-26.183-3.11-35.256a359.115,359.115,0,0,1,.215-53.354,4.349,4.349,0,0,1-2.255-3.517q-.136-2.188,2.522-4.14Zm15.652,97.252q22.536-9.852,34.353-26.849a58.464,58.464,0,0,0,10.513-38.049,61.765,61.765,0,0,0-.984-6.935q-.923-5.958-10.8-8.436a66.383,66.383,0,0,0-20.388-1.825q-10.516.651-14.872,2.059a375.148,375.148,0,0,0-.357,54.012Q173.737,665.9,175.842,684.967Z" transform="translate(-155.867 -400.536)" fill="#ff9dcb"/>
      <path id="Trazado_32" data-name="Trazado 32" d="M577.386,605.845a5.871,5.871,0,0,1,4.28,2.329,7.09,7.09,0,0,1,1.733,5.049q-2.846,61.555-2.911,74.41t-.079,13.169a12.648,12.648,0,0,1-2.113,6.45q-1.954,2.985-4.144,2.885a17.446,17.446,0,0,1-3.311-.389,16.336,16.336,0,0,1-2.01-.645,4.752,4.752,0,0,1-1.757-1.344l-1.437-1.646a12.287,12.287,0,0,1-1.472-2.512q-.9-1.858-1.453-2.986T561,696.674q-1.157-2.815-5.066-11.516t-7.071-15.631q-10.877-23.376-20.531-37.079-2.366,51.17-6,70.878-.63,3.758-5.763,3.521a6.229,6.229,0,0,1-3.944-1.445,4.926,4.926,0,0,1-1.4-4.169q.131-2.832,2.574-31.119t2.767-35.291l.411-8.9q.523-11.331,2.251-12.675A5.3,5.3,0,0,1,522.772,612q8.3.384,24.059,29.509,3.063,5.669,11.618,23.652t10.174,22.16l1.209-65.416q.625-13.536,3.58-15.3A7.346,7.346,0,0,1,577.386,605.845Z" transform="translate(-297.777 -409.662)" fill="#ffd140"/>
      <path id="Trazado_33" data-name="Trazado 33" d="M194.709,437.378a8.533,8.533,0,0,1-5.48,3.127q-3.1.377-4.756-3.495-3.188-22.033-5.855-43.963l-5.63-42.115q-1.547-12.722,9.1-18.772,8.53-5.281,20.915-6.791a35.3,35.3,0,0,1,14.019,1.438,40.2,40.2,0,0,1,14.155,7.452q6.5,5.244,7.34,12.184t-4.55,15.671a66.7,66.7,0,0,1-14.023,15.974,82.5,82.5,0,0,1-17.134,11.34,169.089,169.089,0,0,1,29.954,20.055q13.064,11.066,13.9,17.924a5.552,5.552,0,0,1-1.678,4.37,7.747,7.747,0,0,1-5.038,2.561,6.621,6.621,0,0,1-5.6-2.033q-4.763-8.426-16.247-16.966A165.093,165.093,0,0,0,191.813,399.6l4.913,32.015A7.277,7.277,0,0,1,194.709,437.378ZM214,369.042q12.894-10.566,12.032-17.681t-8.365-10.11a34.414,34.414,0,0,0-17.12-1.825q-9.627,1.17-15.032,4.205.871,8.56,4.434,37.851Q201.1,379.614,214,369.042Z" transform="translate(-162.626 -297.579)" fill="#ff7654"/>
      <path id="Trazado_34" data-name="Trazado 34" d="M841.147,329.327a7.038,7.038,0,0,1,4.942,2.833,7.833,7.833,0,0,1,1.831,5.782q-5.874,69.362-6.479,83.873t-.634,14.865a13.855,13.855,0,0,1-2.75,7.183q-2.423,3.277-4.994,3.062a21.4,21.4,0,0,1-3.881-.6,19.926,19.926,0,0,1-2.339-.823,5.612,5.612,0,0,1-2.012-1.6l-1.623-1.926a13.83,13.83,0,0,1-1.63-2.905q-.986-2.142-1.587-3.44t-1.848-4.533q-1.246-3.232-5.49-13.241t-7.679-17.982q-11.84-26.907-22.637-42.834-4.883,57.661-9.97,79.738-.895,4.214-6.924,3.7a7.551,7.551,0,0,1-4.582-1.818q-1.742-1.58-1.471-4.773t4.306-35.012q4.033-31.822,4.7-39.714l.849-10.024q1.081-12.769,3.168-14.2a6.389,6.389,0,0,1,4.215-1.247q9.752.826,27.1,34.453,3.371,6.546,12.7,27.253T827.5,420.9l4.106-73.8q1.292-15.253,4.841-17.1A8.946,8.946,0,0,1,841.147,329.327Z" transform="translate(-396.87 -299.22)" fill="#ff9dcb"/>
      <path id="Trazado_35" data-name="Trazado 35" d="M440.029,282.51a6.663,6.663,0,0,1,4.889,2.278,7.421,7.421,0,0,1,2.191,5.31q0,65.925.59,79.668t.59,14.078a13.117,13.117,0,0,1-2.022,7q-2.024,3.286-4.468,3.289a20.274,20.274,0,0,1-3.71-.252,19.022,19.022,0,0,1-2.273-.59,5.312,5.312,0,0,1-2.026-1.35l-1.685-1.687a13.121,13.121,0,0,1-1.77-2.612q-1.1-1.942-1.773-3.12t-2.106-4.13q-1.434-2.95-6.239-12.057t-8.684-16.356q-13.324-24.444-24.786-38.612,0,54.8-3.034,76.045-.508,4.048-6.239,4.048a7.151,7.151,0,0,1-4.469-1.35,5.166,5.166,0,0,1-1.77-4.386q0-3.033,1.265-33.385t1.264-37.854v-9.527q0-12.136,1.855-13.658a6.052,6.052,0,0,1,3.879-1.514q9.268,0,28.325,30.347,3.7,5.908,14.163,24.7t12.477,23.18l-2.024-69.971q0-14.5,3.2-16.525A8.468,8.468,0,0,1,440.029,282.51Z" transform="translate(-241.874 -280.543)" fill="#8ebba2"/>
      <g id="Grupo_9-2" data-name="Grupo 9" transform="translate(93.415)">
        <path id="Trazado_36" data-name="Trazado 36" d="M320.5,279.236a7.862,7.862,0,0,1,5.731,2.868,8.7,8.7,0,0,1,2.7,5.982q0,3.122-2.95,6.326t-6.154,3.2a7.936,7.936,0,0,1-5.818-2.7A9.519,9.519,0,0,1,311.39,288q0-8.1,8.768-8.768Zm7.08,88.353.169,11.8a6.624,6.624,0,0,1-2.529,5.31,8.3,8.3,0,0,1-5.4,2.108q-4.216,0-4.384-4.212-2.192-53.788-2.193-59.52t.508-14q.336-3.033,3.877-3.038,8.936,0,10.117,7.25a46.315,46.315,0,0,1,.505,5.9l-.675,10.62Z" transform="translate(-311.39 -279.236)" fill="#0070ff"/>
      </g>
      <path id="Trazado_37" data-name="Trazado 37" d="M524.014,379.467a38.479,38.479,0,0,1,15.258-13.909,40.206,40.206,0,0,1,18.042-4.638q8.765,0,14.078,2.109t5.313,5.566a14.028,14.028,0,0,1-1.939,6.911q-1.942,3.458-5.143,3.458-1.18,0-6.491-1.94t-6.829-1.94a22.338,22.338,0,0,0-16.692,7.168q-6.916,7.169-6.914,18.968t3.794,17.618q3.794,5.819,13.068,5.818,3.7,0,12.729-4.3t11.213-4.3a4.786,4.786,0,0,1,3.54,1.35,4.577,4.577,0,0,1,1.349,3.371q0,4.048-5.143,8.517a42.957,42.957,0,0,1-12.729,7.419,38.2,38.2,0,0,1-13.658,2.95q-13.491,0-21.161-10.626t-7.673-29A37.161,37.161,0,0,1,524.014,379.467Z" transform="translate(-300.495 -311.856)" fill="#ffd140"/>
      <path id="Trazado_38" data-name="Trazado 38" d="M668.16,340.828q13.92,0,22.914,11.636t8.994,27.905q0,16.274-9.186,27.736t-24.367,11.466q-15.183,0-24.465-11.718a40.954,40.954,0,0,1-9.282-26.053q0-18.374,8.509-29.337Q650.365,340.828,668.16,340.828Zm-2.322,13.827q-8.124,0-13.343,7.419a26.8,26.8,0,0,0-5.222,15.684q0,12.816,5.8,19.558t13.149,6.742q13.149,0,16.827-9.949a38.494,38.494,0,0,0,1.545-11.8Q684.6,354.66,665.838,354.655ZM667,307.613c.774-1.908,2.419-2.868,4.931-2.868a8.571,8.571,0,0,1,6,2.027c1.479,1.349,2.224,2.442,2.224,3.289a5.04,5.04,0,0,1-.388,2.1A40.842,40.842,0,0,1,669.416,326.5q-7.251,6.744-11.122,6.742t-5.8-1.683a5.114,5.114,0,0,1-1.936-3.961q0-2.278,3.1-4.3Q663.9,315.874,667,307.613Z" transform="translate(-346.317 -289.423)" fill="#f2a23a"/>
      <path id="Trazado_39" data-name="Trazado 39" d="M432.165,520.847a15.958,15.958,0,0,1,8.8,2.7q4.18,2.7,4.18,6.662a11.294,11.294,0,0,1-3.4,7.664,14.536,14.536,0,0,1-9.057,4.483,55.894,55.894,0,0,1-7.315.35q.957,7.4,3.744,9.754a3.02,3.02,0,0,0,2.352.957,12.709,12.709,0,0,0,9.056-3.439q3.659-3.441,5.226-3.439.7,0,2.09,1.306a3.581,3.581,0,0,1,1.393,2.437q0,2.264-5.486,6.532a21.666,21.666,0,0,1-5.877,3.352,17.62,17.62,0,0,1-6.4,1.348q-7.577,0-11.147-9.752a37.267,37.267,0,0,1-2.263-13.238,22.337,22.337,0,0,1,3.4-12.451Q424.851,520.846,432.165,520.847Zm.436,6.01q-3.309,0-5.66,3.744-.872,1.3-1.655,5.92,12.191,0,12.192-6.007Q437.479,526.857,432.6,526.857Z" transform="translate(-260.573 -375.723)" fill="#0070ff"/>
      <path id="Trazado_40" data-name="Trazado 40" d="M376.451,521.931l-.088-16.808q0-4.7,3.005-4.7t3.352,2.613q.173,1.134.435,13.673t.827,23.512q.565,10.975.566,20.465,0,2.612-3.918,2.613-2.614,0-2.613-3.657a13.886,13.886,0,0,1-8.882,2.96,13.094,13.094,0,0,1-10.58-4.875,18.178,18.178,0,0,1-4.05-12.017,31.11,31.11,0,0,1,2.917-13.369,17.507,17.507,0,0,1,9.1-8.927,18.661,18.661,0,0,1,7.4-1.654A17.888,17.888,0,0,1,376.451,521.931Zm.478,11.887a8.8,8.8,0,0,0-1.524-2.875,3.525,3.525,0,0,0-1.872-1.219,11.513,11.513,0,0,0-2.4-.217,7.677,7.677,0,0,0-3.4,1.044,8.656,8.656,0,0,0-3.4,3.4,19.1,19.1,0,0,0-2.786,9.884,15.687,15.687,0,0,0,2.047,8.448,6.5,6.5,0,0,0,5.835,3.265,6.648,6.648,0,0,0,5.964-3.744,18.871,18.871,0,0,0,2.177-9.579Q377.583,535.69,376.929,533.818Z" transform="translate(-235.193 -367.565)" fill="#f2a23a"/>
      <path id="Trazado_41" data-name="Trazado 41" d="M698.068,610.822l4.344-28.454q1.26-7.953,6.9-7.06t5.593,5.417q.022,1.97-2.849,23.256t-4.754,40.013q-1.882,18.729-4.426,34.782-.7,4.417-8.057,3.252-4.907-.778-3.925-6.963a28.329,28.329,0,0,1-17.471,2.362q-12.265-1.944-18.558-11.4T650.488,644.5a48.881,48.881,0,0,1,9.063-21.742,31.924,31.924,0,0,1,19.482-12.39,38.8,38.8,0,0,1,14.342-.593A37.832,37.832,0,0,1,698.068,610.822Zm-2.29,20.248a14.639,14.639,0,0,0-2.09-5.316,6.816,6.816,0,0,0-3.188-2.619,24.269,24.269,0,0,0-4.439-1.081,16.776,16.776,0,0,0-13.945,5.489,30.322,30.322,0,0,0-7.882,15.888q-1.389,8.762,1.578,14.9a12.706,12.706,0,0,0,10.079,7.259q7.112,1.128,12.2-4.557t6.656-15.554Q696.5,634.431,695.778,631.07Z" transform="translate(-353.215 -397.436)" fill="#0070ff"/>
      <path id="Trazado_42" data-name="Trazado 42" d="M303.805,668.668a6.267,6.267,0,0,1,4.125-1.89,5.915,5.915,0,0,1,3.316.718,3.556,3.556,0,0,1,1.44,1.386,16.134,16.134,0,0,1,.594,2.188q-.7,12.27-.5,22.085a124.266,124.266,0,0,0,2.806,22.416q2.608,12.594,5.436,12.538,4.24-.086,10.664-4.928a31,31,0,0,0,9.148-10.08q-2.338-22.581-2.662-38.757a8.163,8.163,0,0,1,2.009-5.7,6.633,6.633,0,0,1,5.057-2.454q4.866-.1,5,6.5.223,11.153,2.313,33.107t3.938,27.892a12.063,12.063,0,0,1,.371,2.9q.033,1.649-2.057,3.183a9.372,9.372,0,0,1-5.469,1.6q-3.378.068-4.551-3.677-.379-3.138-1.759-9.394-10.767,11.687-21.918,11.909a13.014,13.014,0,0,1-9.346-3.743,26.727,26.727,0,0,1-6.654-10.549,82.185,82.185,0,0,1-4.575-24.422q-.23-11.466.691-28.3A8.385,8.385,0,0,1,303.805,668.668Z" transform="translate(-213.621 -433.765)" fill="#8ebba2"/>
      <path id="Trazado_43" data-name="Trazado 43" d="M429.167,646.395a26.876,26.876,0,0,1,14.906,4.251q7.131,4.407,7.265,11.079t-5.461,13.022q-5.6,6.351-15.1,7.857a94.205,94.205,0,0,1-12.309.835q1.861,12.436,6.635,16.3a5.087,5.087,0,0,0,3.993,1.532,21.41,21.41,0,0,0,15.137-6.1q6.046-5.918,8.685-5.969,1.172-.023,3.565,2.13c1.591,1.433,2.4,2.789,2.427,4.059q.077,3.813-9.021,11.186a36.449,36.449,0,0,1-9.786,5.844,29.672,29.672,0,0,1-10.735,2.488q-12.763.256-19.1-16.049A62.778,62.778,0,0,1,406,676.644q-.243-12.169,5.3-21.087T429.167,646.395ZM430.1,656.5q-5.574.112-9.407,6.5-1.424,2.225-2.588,10.027,20.533-.411,20.332-10.529Q438.318,656.338,430.1,656.5Z" transform="translate(-255.755 -425.858)" fill="#ff7654"/>
      <path id="Trazado_44" data-name="Trazado 44" d="M860.449,602.842a25.723,25.723,0,0,1,16.253-9.106,49.745,49.745,0,0,1,19.4.828q9.581,2.331,10.515,8.435a6.146,6.146,0,0,1-1.536,5.346,6.9,6.9,0,0,1-3.7,2.46c-1.118.171-2.01.276-2.667.309s-3.186-.742-7.593-2.346a24.023,24.023,0,0,0-11.738-1.616,14.478,14.478,0,0,0-8.346,4.017q-3.216,3.242-2.422,8.42a9.564,9.564,0,0,0,5.4,7.511q4.6,2.334,15.365,2.866t16.921,3.574q6.169,3.036,7.775,13.586,2.344,15.372-4.377,22.925a28.578,28.578,0,0,1-17.682,9.232q-10.967,1.672-19.137-.3t-9.134-8.266q-1.1-7.222,5.8-8.272,1.762-.269,8.176,1.4a30.214,30.214,0,0,0,12.33.771q5.922-.9,8.412-5.352a14.682,14.682,0,0,0,1.7-9.635q-.79-5.182-5.211-6.876t-12.955-1.908a60.992,60.992,0,0,1-12.683-1.282q-11.284-2.826-13.628-18.191Q854.012,610.452,860.449,602.842Z" transform="translate(-435.199 -404.597)" fill="#ff7654"/>
      <g id="Grupo_10" data-name="Grupo 10" transform="translate(364.316 224.184)">
        <path id="Trazado_45" data-name="Trazado 45" d="M779.638,720.1c4,12.65,13.805,8.512,22.972,3.723,2.661-1.391,5.808-5.817,8.991-5.707,7.483.258,5.132,8.4,2.486,11.659-9.094,11.211-29.5,18.426-39.863,5.591C769.258,729.219,766.206,712.291,779.638,720.1Z" transform="translate(-765.438 -678.673)" fill="#ff9dcb"/>
        <path id="Trazado_46" data-name="Trazado 46" d="M771.756,660.916a7.862,7.862,0,0,1,5.649,3.027A8.7,8.7,0,0,1,779.936,670q-.087,3.12-3.125,6.241t-6.241,3.029a7.939,7.939,0,0,1-5.74-2.86,9.521,9.521,0,0,1-2.42-6.981q.226-8.093,9.01-8.52Z" transform="translate(-762.403 -655.84)" fill="#ff9dcb"/>
        <path id="Trazado_47" data-name="Trazado 47" d="M825.172,652.482a7.863,7.863,0,0,1,5.649,3.027,8.7,8.7,0,0,1,2.531,6.056q-.087,3.12-3.126,6.241t-6.241,3.029a7.939,7.939,0,0,1-5.74-2.86,9.521,9.521,0,0,1-2.42-6.981q.226-8.093,9.01-8.52Z" transform="translate(-783.735 -652.472)" fill="#ff9dcb"/>
      </g>
    </g>
  </g>
</svg>
